<svg id='map-search_24' width='24' height='24' viewBox='0 0 24 24' fill="none" xmlns='http://www.w3.org/2000/svg' xmlns:xlink='http://www.w3.org/1999/xlink'>
    <rect width='24' height='24' stroke='none' fill='none' opacity='0'/>

    <g transform="matrix(1 0 0 1 12 12)" >
        <g style="" >
            <g transform="matrix(1 0 0 1 0 0)" >
                <path style="stroke: none; stroke-width: 2; stroke-dasharray: none; stroke-linecap: round; stroke-dashoffset: 0; stroke-linejoin: round; stroke-miterlimit: 4; fill: none; fill-rule: nonzero; opacity: 1;" transform=" translate(-12, -12)" d="M 0 0 L 24 0 L 24 24 L 0 24 z" stroke-linecap="round" />
            </g>
            <g transform="matrix(1 0 0 1 0 0)" >
                <path style="stroke: #147efb; stroke-width: 2; stroke-dasharray: none; stroke-linecap: round; stroke-dashoffset: 0; stroke-linejoin: round; stroke-miterlimit: 4; fill: none; fill-rule: nonzero; opacity: 1;" transform=" translate(-12, -12)" d="M 11 18 L 9 17 L 3 20 L 3 7 L 9 4 L 15 7 L 21 4 L 21 14" stroke-linecap="round" />
            </g>
            <g transform="matrix(1 0 0 1 -3 -1.5)" >
                <path style="stroke: #147efb; stroke-width: 2; stroke-dasharray: none; stroke-linecap: round; stroke-dashoffset: 0; stroke-linejoin: round; stroke-miterlimit: 4; fill: none; fill-rule: nonzero; opacity: 1;" transform=" translate(-9, -10.5)" d="M 9 4 L 9 17" stroke-linecap="round" />
            </g>
            <g transform="matrix(1 0 0 1 3 -2.5)" >
                <path style="stroke: #147efb; stroke-width: 2; stroke-dasharray: none; stroke-linecap: round; stroke-dashoffset: 0; stroke-linejoin: round; stroke-miterlimit: 4; fill: none; fill-rule: nonzero; opacity: 1;" transform=" translate(-15, -9.5)" d="M 15 7 L 15 12" stroke-linecap="round" />
            </g>
            <g transform="matrix(1 0 0 1 4.5 5.5)" >
                <circle style="stroke: #147efb; stroke-width: 2; stroke-dasharray: none; stroke-linecap: round; stroke-dashoffset: 0; stroke-linejoin: round; stroke-miterlimit: 4; fill: none; fill-rule: nonzero; opacity: 1;" cx="0" cy="0" r="2.5" />
            </g>
            <g transform="matrix(1 0 0 1 7.75 8.75)" >
                <path style="stroke: #147efb; stroke-width: 2; stroke-dasharray: none; stroke-linecap: round; stroke-dashoffset: 0; stroke-linejoin: round; stroke-miterlimit: 4; fill: none; fill-rule: nonzero; opacity: 1;" transform=" translate(-19.75, -20.75)" d="M 18.5 19.5 L 21 22" stroke-linecap="round" />
            </g>
        </g>
    </g>
</svg>
